<svg width="475" height="475" viewBox="0 0 475 475" fill="none" xmlns="http://www.w3.org/2000/svg">
<g clip-path="url(#clip0)">
<rect width="475" height="475" fill="white"/>
<rect x="266.5" y="124.5" width="139" height="82" rx="15.5" transform="rotate(90 266.5 124.5)" stroke="white" stroke-width="5"/>
<line x1="184" y1="191.5" x2="269" y2="191.5" stroke="white" stroke-width="5"/>
<line x1="146" y1="124.5" x2="219" y2="124.5" stroke="white" stroke-width="5"/>
<g filter="url(#filter0_d)">
<rect width="499" height="475" fill="#13A161"/>
</g>
<path d="M77.272 143.024C79 142.704 80.216 142.384 80.92 142.064C81.688 141.68 82.2 141.168 82.456 140.528C82.776 139.824 82.936 138.768 82.936 137.36V84.176H74.968C70.808 84.176 67.32 85.616 64.504 88.496C61.752 91.312 59.768 94.96 58.552 99.44H56.152C57.112 94.768 57.592 90.544 57.592 86.768C57.592 84.72 57.464 82.928 57.208 81.392H119.896C119.64 82.864 119.512 84.592 119.512 86.576C119.512 89.776 119.992 94.064 120.952 99.44H118.648C117.432 94.96 115.416 91.312 112.6 88.496C109.784 85.616 106.296 84.176 102.136 84.176H94.264V137.36C94.264 138.768 94.392 139.824 94.648 140.528C94.904 141.168 95.416 141.68 96.184 142.064C96.952 142.384 98.168 142.704 99.832 143.024L105.208 144.08V146H71.992V144.08L77.272 143.024ZM174.251 144.464V146H153.035V144.464L156.491 143.312C157.387 143.056 158.027 142.64 158.411 142.064C158.859 141.488 159.083 140.752 159.083 139.856V119.12C159.083 116.176 158.283 113.936 156.683 112.4C155.147 110.864 152.907 110.096 149.963 110.096C147.147 110.096 144.875 111.024 143.147 112.88C141.419 114.672 140.555 116.944 140.555 119.696L140.459 119.408V140.24C140.459 141.84 141.323 142.864 143.051 143.312L146.507 144.464V146H125.291V144.464L128.843 143.312C130.507 142.736 131.339 141.584 131.339 139.856L131.435 87.728C131.435 86.512 131.243 85.648 130.859 85.136C130.475 84.56 129.835 84.176 128.939 83.984L125.291 83.024V81.68C128.811 81.104 131.723 80.56 134.027 80.048C136.331 79.472 138.635 78.704 140.939 77.744L141.803 78.416C140.971 80.272 140.555 83.248 140.555 87.344V109.808C143.691 108.4 147.467 106.448 151.883 103.952C152.459 103.568 153.131 103.376 153.899 103.376C158.443 103.376 161.963 104.528 164.459 106.832C166.955 109.136 168.203 112.432 168.203 116.72V140.24C168.203 141.84 169.067 142.864 170.795 143.312L174.251 144.464ZM215.887 136.784C213.519 140.112 210.863 142.608 207.919 144.272C205.039 145.936 202.031 146.768 198.895 146.768C195.055 146.768 191.567 145.84 188.431 143.984C185.359 142.128 182.959 139.6 181.231 136.4C179.503 133.136 178.639 129.552 178.639 125.648C178.639 121.36 179.535 117.52 181.327 114.128C183.183 110.736 185.711 108.112 188.911 106.256C192.175 104.336 195.791 103.376 199.759 103.376C202.895 103.376 205.679 104.144 208.111 105.68C210.543 107.152 212.431 109.2 213.775 111.824C215.119 114.448 215.791 117.36 215.791 120.56C215.791 121.904 215.151 122.576 213.871 122.576H188.527V123.44C188.527 128.752 189.871 132.912 192.559 135.92C195.311 138.928 198.735 140.432 202.831 140.432C206.735 140.432 210.639 138.768 214.543 135.44L215.887 136.784ZM198.991 106.16C196.239 106.16 193.967 107.376 192.175 109.808C190.383 112.176 189.231 115.408 188.719 119.504L204.559 119.024C205.583 119.024 206.095 118.384 206.095 117.104C206.095 113.776 205.455 111.12 204.175 109.136C202.959 107.152 201.231 106.16 198.991 106.16ZM128.824 204.368C127.096 204.688 125.848 205.04 125.08 205.424C124.376 205.744 123.864 206.256 123.544 206.96C123.288 207.6 123.16 208.624 123.16 210.032V257.36C123.16 258.768 123.288 259.824 123.544 260.528C123.864 261.168 124.376 261.68 125.08 262.064C125.848 262.384 127.096 262.704 128.824 263.024L134.104 264.08V266H100.888V264.08L106.264 263.024C107.928 262.704 109.144 262.384 109.912 262.064C110.68 261.68 111.192 261.168 111.448 260.528C111.704 259.824 111.832 258.768 111.832 257.36V233.264H80.536V257.36C80.536 258.768 80.664 259.824 80.92 260.528C81.24 261.168 81.752 261.68 82.456 262.064C83.224 262.384 84.472 262.704 86.2 263.024L91.48 264.08V266H58.264V264.08L63.64 263.024C65.304 262.704 66.52 262.384 67.288 262.064C68.056 261.68 68.568 261.168 68.824 260.528C69.08 259.824 69.208 258.768 69.208 257.36V210.032C69.208 208.624 69.08 207.6 68.824 206.96C68.568 206.256 68.056 205.744 67.288 205.424C66.52 205.04 65.304 204.688 63.64 204.368L58.264 203.312V201.392H91.48V203.312L86.2 204.368C84.472 204.688 83.224 205.04 82.456 205.424C81.752 205.744 81.24 206.256 80.92 206.96C80.664 207.6 80.536 208.624 80.536 210.032V230.288H111.832V210.032C111.832 208.624 111.704 207.6 111.448 206.96C111.192 206.256 110.68 205.744 109.912 205.424C109.144 205.04 107.928 204.688 106.264 204.368L100.888 203.312V201.392H134.104V203.312L128.824 204.368ZM176.512 256.784C174.144 260.112 171.488 262.608 168.544 264.272C165.664 265.936 162.656 266.768 159.52 266.768C155.68 266.768 152.192 265.84 149.056 263.984C145.984 262.128 143.584 259.6 141.856 256.4C140.128 253.136 139.264 249.552 139.264 245.648C139.264 241.36 140.16 237.52 141.952 234.128C143.808 230.736 146.336 228.112 149.536 226.256C152.8 224.336 156.416 223.376 160.384 223.376C163.52 223.376 166.304 224.144 168.736 225.68C171.168 227.152 173.056 229.2 174.4 231.824C175.744 234.448 176.416 237.36 176.416 240.56C176.416 241.904 175.776 242.576 174.496 242.576H149.152V243.44C149.152 248.752 150.496 252.912 153.184 255.92C155.936 258.928 159.36 260.432 163.456 260.432C167.36 260.432 171.264 258.768 175.168 255.44L176.512 256.784ZM159.616 226.16C156.864 226.16 154.592 227.376 152.8 229.808C151.008 232.176 149.856 235.408 149.344 239.504L165.184 239.024C166.208 239.024 166.72 238.384 166.72 237.104C166.72 233.776 166.08 231.12 164.8 229.136C163.584 227.152 161.856 226.16 159.616 226.16ZM219.914 261.68C221.194 261.68 222.602 261.392 224.138 260.816V262.832C222.602 263.792 220.874 264.656 218.954 265.424C217.098 266.192 215.53 266.576 214.25 266.576C212.586 266.576 211.306 266.096 210.41 265.136C209.578 264.176 209.034 262.704 208.778 260.72C206.41 262.512 204.202 263.952 202.154 265.04C200.17 266.128 198.25 266.672 196.394 266.672C194.218 266.672 192.202 266.032 190.346 264.752C188.49 263.472 187.018 261.808 185.93 259.76C184.842 257.712 184.298 255.536 184.298 253.232C184.298 252.144 184.394 251.376 184.586 250.928C184.778 250.416 185.13 250.064 185.642 249.872L204.842 242.768C206.122 242.32 206.986 241.808 207.434 241.232C207.882 240.592 208.106 239.696 208.106 238.544V235.856C208.106 232.848 207.402 230.48 205.994 228.752C204.65 227.024 202.602 226.16 199.85 226.16C198.058 226.16 196.554 226.576 195.338 227.408C194.186 228.176 193.61 229.136 193.61 230.288C193.61 230.864 193.994 231.664 194.762 232.688C195.786 234.032 196.298 235.312 196.298 236.528C196.298 237.872 195.786 238.96 194.762 239.792C193.802 240.624 192.554 241.04 191.018 241.04C189.418 241.04 188.17 240.592 187.274 239.696C186.442 238.736 186.026 237.424 186.026 235.76C186.026 233.584 186.794 231.536 188.33 229.616C189.93 227.696 191.978 226.192 194.474 225.104C196.97 223.952 199.53 223.376 202.154 223.376C206.634 223.376 210.282 224.56 213.098 226.928C215.914 229.296 217.322 232.496 217.322 236.528V257.072C217.322 258.608 217.482 259.76 217.802 260.528C218.122 261.296 218.826 261.68 219.914 261.68ZM208.202 245.456C208.202 245.264 208.138 245.136 208.01 245.072C207.882 244.944 207.722 244.912 207.53 244.976L194.474 249.776C194.09 249.904 193.802 250.192 193.61 250.64C193.482 251.088 193.418 251.824 193.418 252.848C193.418 254.96 194.154 256.912 195.626 258.704C197.162 260.496 198.826 261.392 200.618 261.392C202.41 261.392 204.49 260.56 206.858 258.896C207.754 258.192 208.202 257.136 208.202 255.728V245.456ZM231.968 263.312C233.632 262.736 234.464 261.584 234.464 259.856L234.56 207.728C234.56 206.512 234.368 205.648 233.984 205.136C233.6 204.56 232.96 204.176 232.064 203.984L228.416 203.024V201.68C231.936 201.104 234.848 200.56 237.152 200.048C239.456 199.472 241.76 198.704 244.064 197.744L244.928 198.416C244.096 200.272 243.68 203.248 243.68 207.344L243.584 260.24C243.584 261.84 244.448 262.864 246.176 263.312L249.632 264.464V266H228.416V264.464L231.968 263.312ZM268.314 266.768C265.306 266.768 263.066 265.872 261.594 264.08C260.122 262.224 259.386 259.408 259.386 255.632V227.216H253.05V224.912C257.146 224.208 260.218 222.768 262.266 220.592C264.314 218.352 265.626 215.152 266.202 210.992H268.506V224.24H280.41L279.45 227.216H268.506V254.768C268.506 257.136 268.858 258.8 269.562 259.76C270.33 260.72 271.418 261.2 272.826 261.2C274.746 261.2 277.114 260.368 279.93 258.704L281.178 260.816C278.81 262.736 276.474 264.208 274.17 265.232C271.93 266.256 269.978 266.768 268.314 266.768ZM333.813 264.464V266H312.597V264.464L316.053 263.312C316.949 263.056 317.589 262.64 317.973 262.064C318.421 261.488 318.645 260.752 318.645 259.856V239.12C318.645 236.176 317.845 233.936 316.245 232.4C314.709 230.864 312.469 230.096 309.525 230.096C306.709 230.096 304.437 231.024 302.709 232.88C300.981 234.672 300.117 236.944 300.117 239.696L300.021 239.408V260.24C300.021 261.84 300.885 262.864 302.613 263.312L306.069 264.464V266H284.853V264.464L288.405 263.312C290.069 262.736 290.901 261.584 290.901 259.856L290.997 207.728C290.997 206.512 290.805 205.648 290.421 205.136C290.037 204.56 289.397 204.176 288.501 203.984L284.853 203.024V201.68C288.373 201.104 291.285 200.56 293.589 200.048C295.893 199.472 298.197 198.704 300.501 197.744L301.365 198.416C300.533 200.272 300.117 203.248 300.117 207.344V229.808C303.253 228.4 307.029 226.448 311.445 223.952C312.021 223.568 312.693 223.376 313.461 223.376C318.005 223.376 321.525 224.528 324.021 226.832C326.517 229.136 327.765 232.432 327.765 236.72V260.24C327.765 261.84 328.629 262.864 330.357 263.312L333.813 264.464ZM381.978 224.24V225.776L378.426 226.736C377.594 226.992 376.954 227.28 376.506 227.6C376.122 227.92 375.802 228.4 375.546 229.04L353.466 281.072C352.058 284.4 350.458 286.864 348.666 288.464C346.874 290.128 344.826 290.96 342.522 290.96C340.73 290.96 339.258 290.416 338.105 289.328C337.018 288.24 336.474 286.928 336.474 285.392C336.474 283.728 336.954 282.352 337.914 281.264C338.938 280.176 340.25 279.632 341.85 279.632C343.258 279.632 344.506 280.112 345.594 281.072C346.426 281.776 347.098 282.128 347.609 282.128C348.634 282.128 349.498 281.296 350.202 279.632L356.634 264.368L341.37 228.656C341.114 228.016 340.762 227.536 340.314 227.216C339.866 226.896 339.226 226.64 338.394 226.448L335.418 225.776V224.24H357.69V225.776L354.234 226.64C353.338 226.832 352.666 227.12 352.218 227.504C351.834 227.824 351.642 228.272 351.642 228.848C351.642 229.04 351.706 229.392 351.834 229.904L361.53 253.52L371.61 229.136C371.802 228.752 371.898 228.432 371.898 228.176C371.898 227.472 371.226 226.992 369.882 226.736L365.466 225.776V224.24H381.978ZM63.64 383.024C65.368 382.704 66.584 382.384 67.288 382.064C68.056 381.68 68.568 381.168 68.824 380.528C69.144 379.824 69.304 378.768 69.304 377.36V330.608C69.304 328.944 69.144 327.76 68.824 327.056C68.568 326.288 68.024 325.744 67.192 325.424C66.424 325.04 65.016 324.656 62.968 324.272L58.264 323.312V321.392H88.504C94.008 321.392 98.808 322.192 102.904 323.792C107 325.392 110.136 327.632 112.312 330.512C114.552 333.328 115.672 336.624 115.672 340.4C115.672 344.368 114.52 347.76 112.216 350.576C109.912 353.328 107 355.408 103.48 356.816C99.96 358.16 96.408 358.832 92.824 358.832C90.648 358.832 88.792 358.608 87.256 358.16V357.488C92.184 357.232 96.152 355.76 99.16 353.072C102.232 350.384 103.768 346.192 103.768 340.496C103.768 334.8 102.264 330.672 99.256 328.112C96.248 325.488 91.896 324.176 86.2 324.176H80.632V377.36C80.632 378.768 80.76 379.824 81.016 380.528C81.272 381.168 81.784 381.68 82.552 382.064C83.32 382.384 84.536 382.704 86.2 383.024L91.96 384.08V386H58.36V384.08L63.64 383.024ZM156.539 381.68C157.819 381.68 159.227 381.392 160.763 380.816V382.832C159.227 383.792 157.499 384.656 155.579 385.424C153.723 386.192 152.155 386.576 150.875 386.576C149.211 386.576 147.931 386.096 147.035 385.136C146.203 384.176 145.659 382.704 145.403 380.72C143.035 382.512 140.827 383.952 138.779 385.04C136.795 386.128 134.875 386.672 133.019 386.672C130.843 386.672 128.827 386.032 126.971 384.752C125.115 383.472 123.643 381.808 122.555 379.76C121.467 377.712 120.923 375.536 120.923 373.232C120.923 372.144 121.019 371.376 121.211 370.928C121.403 370.416 121.755 370.064 122.267 369.872L141.467 362.768C142.747 362.32 143.611 361.808 144.059 361.232C144.507 360.592 144.731 359.696 144.731 358.544V355.856C144.731 352.848 144.027 350.48 142.619 348.752C141.275 347.024 139.227 346.16 136.475 346.16C134.683 346.16 133.179 346.576 131.963 347.408C130.811 348.176 130.235 349.136 130.235 350.288C130.235 350.864 130.619 351.664 131.387 352.688C132.411 354.032 132.923 355.312 132.923 356.528C132.923 357.872 132.411 358.96 131.387 359.792C130.427 360.624 129.179 361.04 127.643 361.04C126.043 361.04 124.795 360.592 123.899 359.696C123.067 358.736 122.651 357.424 122.651 355.76C122.651 353.584 123.419 351.536 124.955 349.616C126.555 347.696 128.603 346.192 131.099 345.104C133.595 343.952 136.155 343.376 138.779 343.376C143.259 343.376 146.907 344.56 149.723 346.928C152.539 349.296 153.947 352.496 153.947 356.528V377.072C153.947 378.608 154.107 379.76 154.427 380.528C154.747 381.296 155.451 381.68 156.539 381.68ZM144.827 365.456C144.827 365.264 144.763 365.136 144.635 365.072C144.507 364.944 144.347 364.912 144.155 364.976L131.099 369.776C130.715 369.904 130.427 370.192 130.235 370.64C130.107 371.088 130.043 371.824 130.043 372.848C130.043 374.96 130.779 376.912 132.251 378.704C133.787 380.496 135.451 381.392 137.243 381.392C139.035 381.392 141.115 380.56 143.483 378.896C144.379 378.192 144.827 377.136 144.827 375.728V365.456ZM184.924 386.768C181.084 386.768 177.628 385.872 174.556 384.08C171.484 382.224 169.084 379.696 167.356 376.496C165.628 373.296 164.764 369.744 164.764 365.84C164.764 361.488 165.724 357.616 167.644 354.224C169.564 350.832 172.156 348.176 175.42 346.256C178.684 344.336 182.236 343.376 186.076 343.376C190.876 343.376 194.652 344.432 197.404 346.544C200.22 348.656 201.628 351.376 201.628 354.704C201.628 356.496 201.148 357.872 200.188 358.832C199.228 359.792 198.012 360.272 196.54 360.272C195.004 360.272 193.724 359.856 192.7 359.024C191.74 358.128 191.26 356.944 191.26 355.472C191.26 354.384 191.516 353.424 192.028 352.592C192.092 352.464 192.22 352.208 192.412 351.824C192.604 351.376 192.7 350.928 192.7 350.48C192.7 349.136 192.028 348.08 190.684 347.312C189.404 346.544 187.772 346.16 185.788 346.16C182.652 346.16 179.996 347.696 177.82 350.768C175.708 353.776 174.652 358 174.652 363.44C174.652 368.752 175.996 372.912 178.684 375.92C181.372 378.928 184.764 380.432 188.86 380.432C192.892 380.432 196.86 378.768 200.764 375.44L202.108 376.784C199.74 380.112 197.052 382.608 194.044 384.272C191.1 385.936 188.06 386.768 184.924 386.768ZM255.153 384.368V386H232.689V384.464L235.569 383.888C236.785 383.504 237.393 382.832 237.393 381.872C237.393 381.296 237.233 380.784 236.913 380.336L227.217 365.744L221.649 371.312V380.24C221.649 381.84 222.513 382.864 224.241 383.312L227.697 384.464V386H206.48V384.464L209.937 383.312C210.833 383.056 211.473 382.64 211.857 382.064C212.305 381.488 212.529 380.752 212.529 379.856V327.728C212.529 326.512 212.337 325.648 211.953 325.136C211.569 324.56 210.929 324.176 210.033 323.984L206.385 323.024V321.68C209.905 321.104 212.817 320.56 215.121 320.048C217.425 319.472 219.729 318.704 222.033 317.744L222.897 318.416C222.065 320.272 221.649 323.248 221.649 327.344V366.992L239.217 349.04C239.537 348.72 239.697 348.368 239.697 347.984C239.697 347.344 239.281 346.928 238.449 346.736L234.033 345.776V344.24H252.273V345.776L247.953 346.736C247.057 346.992 246.385 347.248 245.937 347.504C245.553 347.696 245.073 348.08 244.497 348.656L233.745 359.312L247.665 380.336C248.369 381.296 249.073 382.064 249.777 382.64C250.545 383.152 251.473 383.536 252.561 383.792L255.153 384.368Z" fill="#F1F1F3"/>
</g>
<defs>
<filter id="filter0_d" x="-50" y="-33" width="599" height="575" filterUnits="userSpaceOnUse" color-interpolation-filters="sRGB">
<feFlood flood-opacity="0" result="BackgroundImageFix"/>
<feColorMatrix in="SourceAlpha" type="matrix" values="0 0 0 0 0 0 0 0 0 0 0 0 0 0 0 0 0 0 127 0"/>
<feOffset dy="17"/>
<feGaussianBlur stdDeviation="25"/>
<feColorMatrix type="matrix" values="0 0 0 0 0 0 0 0 0 0 0 0 0 0 0 0 0 0 0.25 0"/>
<feBlend mode="normal" in2="BackgroundImageFix" result="effect1_dropShadow"/>
<feBlend mode="normal" in="SourceGraphic" in2="effect1_dropShadow" result="shape"/>
</filter>
<clipPath id="clip0">
<rect width="475" height="475" fill="white"/>
</clipPath>
</defs>
</svg>
